<svg width="30" height="30" viewBox="0 0 30 30" fill="none" xmlns="http://www.w3.org/2000/svg">
<path d="M27.4125 8.45001L23.2 25.3625C22.9 26.625 21.775 27.5 20.475 27.5H4.04998C2.16248 27.5 0.812501 25.6499 1.375 23.8374L6.63748 6.93756C6.99998 5.76256 8.08751 4.94995 9.31251 4.94995H24.6875C25.875 4.94995 26.8625 5.67496 27.275 6.67496C27.5125 7.21246 27.5625 7.82501 27.4125 8.45001Z" stroke="#F6B352" stroke-width="1.408" stroke-miterlimit="10"/>
<path d="M20 27.5H25.975C27.5875 27.5 28.85 26.1375 28.7375 24.525L27.5 7.5" stroke="#F6B352" stroke-width="1.408" stroke-miterlimit="10" stroke-linecap="round" stroke-linejoin="round"/>
<path d="M12.1 7.97488L13.4 2.57495" stroke="#F6B352" stroke-width="1.408" stroke-miterlimit="10" stroke-linecap="round" stroke-linejoin="round"/>
<path d="M20.475 7.98745L21.65 2.5625" stroke="#F6B352" stroke-width="1.408" stroke-miterlimit="10" stroke-linecap="round" stroke-linejoin="round"/>
<path d="M9.625 15H19.625" stroke="#F6B352" stroke-width="1.408" stroke-miterlimit="10" stroke-linecap="round" stroke-linejoin="round"/>
<path d="M8.375 20H18.375" stroke="#F6B352" stroke-width="1.408" stroke-miterlimit="10" stroke-linecap="round" stroke-linejoin="round"/>
</svg>
